PathFileType	4	(X/Y/Z)	54_2_rein_70_p0_0-868.trc
DataRate	CameraRate	NumFrames	NumMarkers	Units	OrigDataRate	OrigDataStartFrame	OrigNumFrames
60.0	60.0	7	27	m	60.0	0	869
Frame#	Time	RHip			RKnee			RAnkle			RBigToe			RSmallToe			RHeel			LHip			LKnee			LAnkle			LBigToe			LSmallToe			LHeel			Neck			Head			Nose			RShoulder			RElbow			RWrist			RThumb			RIndex			RPinky			LShoulder			LElbow			LWrist			LThumb			LIndex			LPinky			
		X1	Y1	Z1	X2	Y2	Z2	X3	Y3	Z3	X4	Y4	Z4	X5	Y5	Z5	X6	Y6	Z6	X7	Y7	Z7	X8	Y8	Z8	X9	Y9	Z9	X10	Y10	Z10	X11	Y11	Z11	X12	Y12	Z12	X13	Y13	Z13	X14	Y14	Z14	X15	Y15	Z15	X16	Y16	Z16	X17	Y17	Z17	X18	Y18	Z18	X19	Y19	Z19	X20	Y20	Z20	X21	Y21	Z21	X22	Y22	Z22	X23	Y23	Z23	X24	Y24	Z24	X25	Y25	Z25	X26	Y26	Z26	X27	Y27	Z27	
0	0.0	0.28999895706049195	0.5475871385680665	1.1068505003807676	0.29969398726089175	0.567077056905199	1.5513451950639625	0.2715526835583616	0.5779465205048021	1.9604014774375478	0.23313986878886245	0.3852810595091595	1.959651369741209	0.3015614388108823	0.38924380469848036	1.9609183943930515	0.24614999031348664	0.6410757793892976	2.016977905112431	0.07876366863912473	0.5495371486877146	1.115052389225068	0.0781342134828202	0.5827152470807891	1.5414363860314422	0.07778056227927756	0.5529085357266	1.9397140018774917	0.07693113225423805	0.3376284795223829	1.9084442855949195	0.025833070120811853	0.3950361200176004	1.9330809211126987	0.09326701055197865	0.6184260628913207	2.0242326810844107	0.1918469857488411	0.5695397081665412	0.5616148486687109	0.19368666098027815	0.5547908495626466	0.3280891472687521	0.1954082074676261	0.4607138451292229	0.4392740870497477	0.36050039212697993	0.5482216233319265	0.6414180388412435	0.3586202383605179	0.4913535110224917	0.8907103435886472	0.2853283336119817	0.3815683450233136	1.0381417730641744	0.2067765498115002	0.3309844753002826	1.0715889770550568	0.18402213146782023	0.35067450788813614	1.117436942567801	0.171828197609537	0.3594022973240819	1.1247799996969414	0.03338696908215228	0.554239561581032	0.6483603232346697	0.026059989747633718	0.4871820338234953	0.900077749194211	0.09758549156713818	0.39249562271263805	1.0388211200644506	0.1874830618252597	0.3552516786277739	1.0635428245710574	0.19562687150472177	0.35291137861741123	1.1138394678170167	0.17237899966648282	0.36404417115529086	1.1605548540882744
1	0.016666666666666666	0.28631392504904063	0.5614820190189836	1.1117919298094787	0.2941415535654625	0.5672313032905081	1.551394265093677	0.2675799777893929	0.5946220441399834	1.9712684207106812	0.22901191877102994	0.374765532854389	1.9513648371578887	0.29295335055957655	0.3764638889012017	1.9515697671749566	0.2505784536378906	0.6531245221333833	2.0245752050170625	0.07778793398062786	0.5491534717500425	1.118379168120582	0.07818462846440588	0.5825088987348793	1.5414417323641998	0.08213805607023965	0.5663308389648384	1.9534717754625817	0.07968168823787462	0.34807989551286456	1.9157619232302472	0.02749347988380196	0.40729852563267654	1.9453041646707516	0.09666611382557833	0.6298913558003656	2.032040093184185	0.19182437806871303	0.5693270712394668	0.561629790266082	0.19719265433594865	0.5415404859308345	0.32682734349825493	0.19541080072035855	0.46075769751956913	0.43928560643390213	0.360237483413088	0.5478421665297897	0.6451470571134429	0.358150516010573	0.4909455405671676	0.886930209582505	0.28553082590541234	0.381914757213491	1.0379538412042533	0.20230159974762268	0.34592954982847546	1.067098141347336	0.18023222099101865	0.3633143799532324	1.1221387890295529	0.17205669708122354	0.37428889913596197	1.1305956667154586	0.03340735495533192	0.5539538393426096	0.6482318502732195	0.025291263793986565	0.4882005576132469	0.8994399923551194	0.09327391241281932	0.38966503972340644	1.0377919699718914	0.18343004488604459	0.3547931864356851	1.0596696230118874	0.19559194969515373	0.3530352748883551	1.1138698455869684	0.17903086394920784	0.37591030370582956	1.1657026965565747
2	0.03333333333333333	0.2855740909532328	0.559421146378321	1.1064638225829277	0.29434318271261334	0.563225770842599	1.5445214134327243	0.2722314767882756	0.5969646516895649	1.9723985068912584	0.23297664040631044	0.3849076896510165	1.9588018374067566	0.30260532271007945	0.38896371788125883	1.9559418868996068	0.25135177158496597	0.6539863200608366	2.0251885140980166	0.07786225140844688	0.5487544953175015	1.1178200058132803	0.07817473407332333	0.5823754868346049	1.5413994460284797	0.08007708599629108	0.565455283371599	1.9527705257780736	0.07994819399050695	0.3480614983202755	1.9156015886206088	0.02234707126966594	0.4232063840027256	1.9509057563818524	0.09321683802564935	0.617784366181419	2.0241066192869375	0.19601401812933117	0.5711178278452081	0.5618691081142144	0.19712391994122955	0.541553974191217	0.3268221151610231	0.19543212386350076	0.4606589068022924	0.4391868732684387	0.3601855482550132	0.5476654221835536	0.6380505401574658	0.36225882476185883	0.5014436642726208	0.8898639523493963	0.28561342935499984	0.3817064307302317	1.0298119341632406	0.1964036985916494	0.37043212671504533	1.066387617463242	0.17666919906773562	0.3622110053150561	1.1183312870218303	0.17252577372740202	0.360276672333821	1.1213249412329989	0.03338024677250061	0.5539672074236894	0.6482844240220427	0.024744401972203664	0.4879541580976685	0.9030435012592366	0.08837097238878382	0.3867166600600031	1.04067944821138	0.17871124619101206	0.3662529045413906	1.068203840320643	0.19534779512582523	0.35366199999024256	1.1219487386950846	0.17826962460148368	0.3755564937923104	1.1696252817795032
3	0.05	0.28625658152777916	0.5607253744393076	1.1115288528119316	0.2943443252582972	0.5633520438234496	1.5446817270973088	0.276588807926329	0.60948221343661	1.9803617006909848	0.23302435636627516	0.38517558407535063	1.958858682193635	0.302737110856583	0.38957101035557506	1.9559446519327786	0.25096401183829903	0.6532246314685973	2.0243115267994747	0.07814135914766247	0.5490525969025077	1.118659689050481	0.0784255923382674	0.5809534631205654	1.5451316206876204	0.07862270050764522	0.5543309231164764	1.9455896431949466	0.08000785080977466	0.3478759770022903	1.9154560905782403	0.02398778758674184	0.4202196992337227	1.950270037004579	0.09323949692533767	0.6181254191767315	2.02434462839425	0.1960178299068391	0.5711182891390993	0.5618132876333816	0.19714034548698212	0.541635397651872	0.3268227447668022	0.195428269717884	0.46064313272906254	0.4391644802945633	0.3601664189871094	0.5476854793145528	0.6380861503175739	0.36275630821447635	0.5022573017986784	0.8937649751039402	0.28291623844503166	0.3953631302369847	1.038890615138036	0.19226440683523136	0.384164287094715	1.0676120365684436	0.17634880597453675	0.3624745955561954	1.1259889262155043	0.17218478908515922	0.37408707786052214	1.1302054308465057	0.033335561534745234	0.5539311743863339	0.6482985092627724	0.024673771491554943	0.4879959304255061	0.902936421907887	0.08866506830143199	0.38774499419195224	1.0446957864286213	0.17508230905741998	0.36532129610476055	1.0680734869187616	0.18743890738083097	0.3639568475196279	1.1261705828742348	0.17509461409045973	0.3749905155529688	1.1650776189608312
4	0.06666666666666667	0.28216522636929353	0.5494271385840584	1.107652457449965	0.2936215910819422	0.5636646376039481	1.5495111500822851	0.2722298064601468	0.5971119481474029	1.9725739011810026	0.23287780985782883	0.38498547213220746	1.9586468006964126	0.30269764175799885	0.3896182122226347	1.9559986785182404	0.25083373987747776	0.6532111356298835	2.024489341478906	0.07375242973262978	0.5625801500831709	1.1236603104011489	0.07840734907004501	0.5810635275092703	1.5452218793131758	0.08132234050124056	0.5649606310754755	1.9475871418080288	0.07991604829253796	0.3478889945447908	1.9155490665821586	0.02393457122590377	0.4203375325372002	1.9504269373049181	0.09326213306706575	0.6180877913172639	2.0245047914730625	0.19600148797286365	0.5710707446556327	0.5618037468239756	0.1971726961347153	0.5416096234980129	0.32687979358121055	0.1954359669591765	0.46072027947276684	0.43917410295605863	0.36016373294905574	0.5477349071647402	0.6381024238470286	0.3622612187944412	0.5015713129622292	0.8899628026215336	0.2829868307011348	0.3956643556330383	1.0387398779318553	0.19655555694910742	0.394064561836968	1.074001088979447	0.17587533574862257	0.3611675882023391	1.1209039950457087	0.17180749188335231	0.3731392076389712	1.125894249240257	0.033320035310364676	0.553969591561787	0.6482760651579901	0.02523597508940887	0.4884027443568295	0.8990308186303785	0.09249507612674669	0.39800301660928	1.0443875766537332	0.174994676161525	0.3660076572523899	1.0681768520570323	0.18719870580356593	0.3645700728813701	1.1263528422105462	0.1757661687341483	0.3756018719801745	1.1612316001043181
5	0.08333333333333333	0.2823696591105498	0.5481785336314869	1.1109276470014808	0.29449767087310735	0.5631779736456508	1.5448562869277382	0.272264459586057	0.5971820888355222	1.9726928446119947	0.2328148396594067	0.3846651370364038	1.958312771837234	0.3026389809882123	0.38939744643356766	1.9558763260861105	0.25113625805688505	0.6537117559825436	2.0250118904966583	0.07388983060434864	0.5613364541845792	1.126767766955727	0.07844358408777227	0.5810109422286951	1.545031380196692	0.08134637437441058	0.5651577264657037	1.9476855103660904	0.07992147378982481	0.34801113450218546	1.9156562943424769	0.01986714577575924	0.4091295330710677	1.9467797963143725	0.09674922161459192	0.629735485156993	2.0324775986841086	0.1959923351382082	0.5710313888318036	0.5618301390970983	0.19718126600611047	0.5416232672119984	0.3268667561582386	0.19544477438234223	0.4607120579212267	0.43918325835653926	0.35993502666703464	0.547464709604418	0.6418234880621163	0.36227453114354535	0.5016081500657232	0.8900065299367731	0.28298880675738053	0.3957536885941614	1.0387949562348269	0.20008719703645922	0.3959255991014097	1.0742413576817473	0.17595179936103836	0.36165284062237824	1.1210833924410033	0.17212413829924877	0.37328520562292	1.126075517480092	0.033283961587204314	0.5539503836756888	0.648303884352422	0.027056370350869594	0.49766066147181404	0.9018234399335674	0.09193142139790197	0.3979506279958242	1.048372888146733	0.17506987475887878	0.3656488345672797	1.0683199557857386	0.1866179192387349	0.36364698672030704	1.1222773984459686	0.17956596435511402	0.3772537995506351	1.1615775821707972
6	0.1	0.28241432628014046	0.5482873380296818	1.1109292198765448	0.2943471187501287	0.5631280206517164	1.5446519615366723	0.27224604661291907	0.5970485980444291	1.9725274523716159	0.23303350944519088	0.38490588074370485	1.9588384418813891	0.3026826253930778	0.38926425715186413	1.9559659366129822	0.2509652998264529	0.653320482664489	2.024578119928797	0.07382110642841638	0.561319474854833	1.1267418664256472	0.07775648072648053	0.5798937128213953	1.539781400438875	0.0777699755630909	0.5530465464536377	1.939918169299628	0.07983638240035212	0.3480436136816851	1.9156963186733198	0.022695410849007107	0.4208603258510251	1.9548217691042085	0.09320983597825423	0.617998808469096	2.0247054770477	0.19602637439214465	0.5711241878813194	0.5618390671852921	0.19718790979964562	0.5415500344200058	0.3269005546447758	0.19542442818741088	0.46087097560095064	0.43928028830919247	0.3599390451140405	0.5474209348941166	0.6418064300015464	0.3594096539859579	0.5152913822188276	0.8939299841806376	0.2824757491540555	0.395316515603311	1.0345952241407455	0.19600939776319734	0.39534052908400136	1.0702126238089196	0.17999759708213897	0.3633993153589514	1.1218031803985278	0.18076989943371413	0.37843033199348614	1.1322296512516092	0.033361810809142564	0.554211673825801	0.6482856661480072	0.026519964525517303	0.49768206463211745	0.9053034760674483	0.09570587895539827	0.4002851970988922	1.0455973715765008	0.17393920044455902	0.3647222727266238	1.0681973919078531	0.1904587893378938	0.36565677311563705	1.1226290966688983	0.18276629730527358	0.37815799596320127	1.157210750553759
